<?xml version="1.0" encoding="UTF-8" standalone="no"?>
<svg
   viewBox="0 0 486.6 171.94"
   version="1.1"
   id="svg68"
   sodipodi:docname="upi-logo.svg"
   inkscape:version="1.2.2 (732a01da63, 2022-12-09)"
   xmlns:inkscape="http://www.inkscape.org/namespaces/inkscape"
   xmlns:sodipodi="http://sodipodi.sourceforge.net/DTD/sodipodi-0.dtd"
   xmlns="http://www.w3.org/2000/svg"
   xmlns:svg="http://www.w3.org/2000/svg">
  <sodipodi:namedview
     id="namedview70"
     pagecolor="#ffffff"
     bordercolor="#000000"
     borderopacity="0.25"
     inkscape:showpageshadow="2"
     inkscape:pageopacity="0.0"
     inkscape:pagecheckerboard="0"
     inkscape:deskcolor="#d1d1d1"
     showgrid="false"
     inkscape:zoom="1.9297941"
     inkscape:cx="206.23962"
     inkscape:cy="115.81547"
     inkscape:window-width="1920"
     inkscape:window-height="991"
     inkscape:window-x="-9"
     inkscape:window-y="-9"
     inkscape:window-maximized="1"
     inkscape:current-layer="Layer_1-2" />
  <defs
     id="defs4">
    <style
       id="style2">.cls-1{fill:#49504f;}.cls-1,.cls-2,.cls-3,.cls-4{fill-rule:evenodd;}.cls-2{fill:gray;}.cls-3{fill:#249350;}.cls-4{fill:#ee782c;}</style>
  </defs>
  <title
     id="title6">UPI</title>
  <g
     id="Layer_2"
     data-name="Layer 2">
    <g
       id="Layer_1-2"
       data-name="Layer 1">
      <path
         class="cls-1"
         d="M3.91,147.66H7.55L4.13,161.83c-.52,2.08-.4,3.7.29,4.74s2,1.56,3.87,1.56a6.88,6.88,0,0,0,4.63-1.56,8.86,8.86,0,0,0,2.55-4.74l3.4-14.17h3.71l-3.47,14.51a12.32,12.32,0,0,1-4,7.05,11.59,11.59,0,0,1-7.57,2.38c-3.12,0-5.26-.75-6.42-2.32s-1.39-3.92-.64-7.05l3.48-14.57Z"
         id="path8" />
      <path
         class="cls-1"
         d="M22.06,171l5.78-24.22,11,14.22c.29.41.58.81.87,1.27s.58,1,.92,1.56l3.88-16.13H47.9l-5.78,24.17L30.9,157.32,30,156.11a6.67,6.67,0,0,1-.69-1.39L25.47,170.9H22.06V171Z"
         id="path10" />
      <polygon
         class="cls-1"
         points="47.61 170.96 53.16 147.66 56.86 147.66 51.31 170.96 47.61 170.96 47.61 170.96"
         id="polygon12" />
      <polygon
         class="cls-1"
         points="56.57 170.96 62.12 147.66 74.78 147.66 74.03 150.9 65.07 150.9 63.68 156.68 72.65 156.68 71.84 159.97 62.88 159.97 60.27 170.9 56.57 170.9 56.57 170.96 56.57 170.96"
         id="polygon14" />
      <polygon
         class="cls-1"
         points="73.34 170.96 78.89 147.66 82.59 147.66 77.04 170.96 73.34 170.96 73.34 170.96"
         id="polygon16" />
      <polygon
         class="cls-1"
         points="82.3 170.96 87.86 147.66 100.51 147.66 99.76 150.9 90.8 150.9 89.41 156.74 98.37 156.74 97.56 160.03 88.6 160.03 86.81 167.55 95.77 167.55 94.96 170.96 82.3 170.96 82.3 170.96"
         id="polygon18" />
      <path
         class="cls-1"
         d="M99.24,171l5.55-23.3h5a28.53,28.53,0,0,1,6.71.52,6.91,6.91,0,0,1,3.07,1.68,7.36,7.36,0,0,1,2,3.93,14,14,0,0,1-.29,5.5,17.92,17.92,0,0,1-2.31,5.48,13.45,13.45,0,0,1-3.94,3.94,11,11,0,0,1-3.81,1.67,25.59,25.59,0,0,1-6,.52h-6V171Zm4.51-3.46h3.12a16.63,16.63,0,0,0,3.93-.36,7.46,7.46,0,0,0,2.49-1.15,9.42,9.42,0,0,0,2.6-2.83,12.73,12.73,0,0,0,1.56-3.94,10.09,10.09,0,0,0,.29-3.87,5.3,5.3,0,0,0-1.27-2.83,3.9,3.9,0,0,0-2-1.16,17.17,17.17,0,0,0-4.1-.35h-2.66l-3.93,16.49Z"
         id="path20" />
      <path
         class="cls-1"
         d="M138.26,160.5,135.78,171h-3.47l5.55-23.3h5.61a17,17,0,0,1,3.58.29,3.56,3.56,0,0,1,1.8.92,3.84,3.84,0,0,1,1.15,2.2,7.74,7.74,0,0,1-.11,3,9.67,9.67,0,0,1-1.33,3.07,8,8,0,0,1-2.2,2.19,7.67,7.67,0,0,1-2.25.92,18.48,18.48,0,0,1-3.7.29h-2.15v-.05Zm1-3.12h.93a9.27,9.27,0,0,0,4.27-.7,3.64,3.64,0,0,0,1.63-2.43c.28-1.21.11-2.14-.47-2.6s-1.91-.75-3.82-.75h-.92l-1.62,6.48Z"
         id="path22" />
      <path
         class="cls-1"
         d="M162.44,171l-1.16-6h-9l-4,6h-3.87l16.77-24.22,5.2,24.22Zm-8-9.19h6.29l-1-5.32a8,8,0,0,1-.11-1.16,11.17,11.17,0,0,1-.06-1.45,11.58,11.58,0,0,1-.74,1.45c-.24.46-.47.87-.7,1.22l-3.64,5.26Z"
         id="path24" />
      <path
         class="cls-1"
         d="M171.62,171l2.55-10.64-4.63-12.6h3.88l2.89,7.92c.06.23.11.47.23.81s.18.7.29,1l.69-1c.23-.34.47-.64.7-.93l6.76-7.8h3.7l-10.81,12.54-2.54,10.64h-3.71V171Z"
         id="path26" />
      <path
         class="cls-1"
         d="M206.83,159.46c0-.17.06-.7.18-1.51s.11-1.21.17-1.67c-.23.51-.46,1-.75,1.62a14.09,14.09,0,0,1-1,1.61l-8.91,12.43-2.88-12.65c-.12-.53-.23-1-.29-1.51a11.65,11.65,0,0,1-.12-1.45c-.12.47-.29,1-.46,1.57a14.68,14.68,0,0,1-.7,1.67L186.83,171h-3.41l11.16-24.28,3.18,14.68a10.16,10.16,0,0,1,.17,1.16c.06.52.18,1.21.29,2,.4-.69.93-1.5,1.62-2.55a4,4,0,0,0,.41-.63l10.06-14.68L210,171h-3.41l.28-11.56Z"
         id="path28" />
      <polygon
         class="cls-1"
         points="212.97 170.96 218.51 147.66 231.17 147.66 230.43 150.9 221.46 150.9 220.08 156.74 229.04 156.74 228.23 160.03 219.26 160.03 217.47 167.55 226.44 167.55 225.63 170.96 212.97 170.96 212.97 170.96"
         id="polygon30" />
      <path
         class="cls-1"
         d="M229.85,171l5.77-24.22,11,14.22c.29.41.58.81.87,1.27s.57,1,.92,1.56l3.87-16.13h3.42l-5.79,24.17-11.21-14.51-.86-1.21a6.71,6.71,0,0,1-.7-1.39l-3.87,16.18h-3.41V171Z"
         id="path32" />
      <polygon
         class="cls-1"
         points="267.48 150.84 262.69 170.9 258.98 170.9 263.78 150.84 257.77 150.84 258.52 147.6 274.25 147.6 273.49 150.84 267.48 150.84 267.48 150.84"
         id="polygon34" />
      <path
         class="cls-1"
         d="M271.35,166.27l3.3-1.38a3.11,3.11,0,0,0,1,2.37,4.06,4.06,0,0,0,2.66.81,4.39,4.39,0,0,0,2.84-.93,4.18,4.18,0,0,0,1.56-2.48c.34-1.39-.46-2.61-2.43-3.64a4,4,0,0,0-.64-.35c-2.19-1.27-3.58-2.37-4.16-3.41a4.94,4.94,0,0,1-.34-3.7,8,8,0,0,1,3-4.62,8.69,8.69,0,0,1,5.38-1.8,7.24,7.24,0,0,1,4,1,3.83,3.83,0,0,1,1.67,2.84l-3.23,1.5a3.48,3.48,0,0,0-1.11-1.62,2.81,2.81,0,0,0-1.72-.52,4.17,4.17,0,0,0-2.55.81,3.63,3.63,0,0,0-1.39,2.14c-.35,1.39.63,2.72,2.89,3.93a2.29,2.29,0,0,0,.41.23,9.43,9.43,0,0,1,3.87,3.12,5.24,5.24,0,0,1,.35,3.82,9.16,9.16,0,0,1-3.3,5.26,9.59,9.59,0,0,1-5.95,2,6.53,6.53,0,0,1-4.45-1.39,4.57,4.57,0,0,1-1.63-3.94Z"
         id="path36" />
      <polygon
         class="cls-1"
         points="298.59 170.96 304.14 147.66 307.84 147.66 302.28 170.96 298.59 170.96 298.59 170.96"
         id="polygon38" />
      <path
         class="cls-1"
         d="M307.6,171l5.79-24.22,11,14.22c.29.41.58.81.87,1.27l.93,1.56L330,147.66h3.41l-5.79,24.17-11.21-14.51c-.29-.41-.57-.81-.87-1.21a6.67,6.67,0,0,1-.69-1.39L311,170.9H307.6V171Z"
         id="path40" />
      <polygon
         class="cls-1"
         points="345.25 150.84 340.45 170.9 336.74 170.9 341.55 150.84 335.53 150.84 336.28 147.6 352.01 147.6 351.26 150.84 345.25 150.84 345.25 150.84"
         id="polygon42" />
      <polygon
         class="cls-1"
         points="349.23 170.96 354.78 147.66 367.51 147.66 366.75 150.9 357.79 150.9 356.4 156.74 365.37 156.74 364.55 160.03 355.6 160.03 353.81 167.55 362.76 167.55 361.95 170.96 349.23 170.96 349.23 170.96"
         id="polygon44" />
      <path
         class="cls-1"
         d="M372.07,160.5l-2.48,10.4h-3.48l5.56-23.3h5.14a15.58,15.58,0,0,1,3.41.3,3.73,3.73,0,0,1,1.91,1,4,4,0,0,1,1.09,2.2,7.12,7.12,0,0,1-.11,3,8.41,8.41,0,0,1-2.37,4.39,7.76,7.76,0,0,1-4.33,1.91l5.26,10.58H377.5l-5-10.4Zm.93-2.95h.69a8.3,8.3,0,0,0,4-.69,3.72,3.72,0,0,0,1.56-2.49c.3-1.27.18-2.2-.39-2.72s-1.8-.81-3.65-.81h-.69L373,157.55Z"
         id="path46" />
      <polygon
         class="cls-1"
         points="383.92 170.96 389.47 147.66 402.14 147.66 401.38 150.9 392.42 150.9 391.03 156.68 399.99 156.68 399.19 159.97 390.22 159.97 387.63 170.9 383.92 170.9 383.92 170.96 383.92 170.96"
         id="polygon48" />
      <path
         class="cls-1"
         d="M414.45,171l-1.16-6h-9l-4,6h-3.88l16.77-24.22,5.2,24.22Zm-8-9.19h6.31l-1.05-5.32a8,8,0,0,1-.11-1.16,11.17,11.17,0,0,1-.06-1.45,34.88,34.88,0,0,1-1.45,2.67l-3.64,5.26Z"
         id="path50" />
      <path
         class="cls-1"
         d="M442.38,153.33a7.58,7.58,0,0,0-2.84-2,8.57,8.57,0,0,0-3.52-.69,10.13,10.13,0,0,0-6.65,2.43,11.44,11.44,0,0,0-3.87,6.36,7.49,7.49,0,0,0,.8,6.24,5.8,5.8,0,0,0,5.14,2.43,10.77,10.77,0,0,0,4-.75,16.39,16.39,0,0,0,4.05-2.2l-1,4.28A12.85,12.85,0,0,1,434.8,171a14.49,14.49,0,0,1-3.92.52,11.6,11.6,0,0,1-4.64-.87,8.07,8.07,0,0,1-3.29-2.6,8.23,8.23,0,0,1-1.62-3.93,11.6,11.6,0,0,1,.29-4.85,16.06,16.06,0,0,1,2-4.81,15.38,15.38,0,0,1,3.53-3.93,14.63,14.63,0,0,1,4.51-2.6,14.4,14.4,0,0,1,4.91-.87,11.08,11.08,0,0,1,3.7.58,9.84,9.84,0,0,1,3.07,1.79l-1,3.88Z"
         id="path52" />
      <polygon
         class="cls-1"
         points="442.72 170.96 448.27 147.66 460.94 147.66 460.19 150.9 451.22 150.9 449.83 156.74 458.8 156.74 457.98 160.03 449.02 160.03 447.23 167.55 456.19 167.55 455.38 170.96 442.72 170.96 442.72 170.96"
         id="polygon54" />
      <polygon
         class="cls-2"
         points="375.42 127.37 350.04 127.37 385.31 0 410.69 0 375.42 127.37 375.42 127.37"
         id="polygon56"
         style="fill:#313131;fill-opacity:1" />
      <path
         class="cls-2"
         d="M362.24,4Q359.65.34,354.09.35H214.64l-6.88,25H334.6L327.21,52H225.74v-.06H200.36l-21,76H204.7l14.11-51H332.87a16.05,16.05,0,0,0,10.06-3.64,17,17,0,0,0,6.19-9l14.11-51c1.09-3.82.74-6.88-1-9.31Z"
         id="path58"
         style="fill:#313131;fill-opacity:1" />
      <path
         class="cls-2"
         d="M164.52,119.39A11.7,11.7,0,0,1,153.3,128H22.46c-3.59,0-6.24-1.22-8-3.65s-2.15-5.43-1.1-9L45.3.35H70.68L42.18,103H143.7L172.2.35h25.39l-33.07,119Z"
         id="path60"
         style="fill:#313131;fill-opacity:1" />
      <polygon
         class="cls-3"
         points="454.52 0.23 486.6 64.06 419.13 127.89 454.52 0.23 454.52 0.23"
         id="polygon62" />
      <polygon
         class="cls-4"
         points="431.97 0.23 464.05 64.06 396.52 127.89 431.97 0.23 431.97 0.23"
         id="polygon64" />
    </g>
  </g>
</svg>
